<svg xmlns="http://www.w3.org/2000/svg" width="633" height="168" viewBox="0 0 633 168">
  <g id="copy_kv" transform="translate(-91 -342)">
    <rect id="長方形_24385" data-name="長方形 24385" width="633" height="79" transform="translate(91 431)" fill="#fff"/>
    <rect id="長方形_24386" data-name="長方形 24386" width="330" height="80" transform="translate(91 342)" fill="#fff"/>
    <path id="パス_130009" data-name="パス 130009" d="M39.167-25.758l.848-.742a.822.822,0,0,0,.371-.583c0-.424-.954-1.219-2.915-2.438L35.987-28.2H27.3v-3.71c1.431-.477,2.12-.9,2.12-1.325,0-.795-1.643-1.219-4.982-1.378V-28.2H16.854l-1.113-.583A48.123,48.123,0,0,0,26.659-40.015,57.248,57.248,0,0,0,47.912-24.8,9.491,9.491,0,0,1,50.3-27.878,56.535,56.535,0,0,1,27.56-41.234c1.537-.212,2.279-.53,2.279-.954,0-.689-1.484-1.325-4.452-2.014Q17.834-30.528,2.65-22.843l.742,1.113A61.152,61.152,0,0,0,13.3-27.083V-1.219L6.1-.53C7,2.6,7.844,4.187,8.533,4.187c.477,0,.8-.636,1.06-1.855A147.752,147.752,0,0,0,30-2.544l-.265-1.378c-3.975.848-8.427,1.643-13.356,2.332V-13.3H24.8C29.15-4.77,36.464.742,46.8,3.339A8.854,8.854,0,0,1,49.343.106,37.565,37.565,0,0,1,34.4-5.194a57.291,57.291,0,0,0,7.95-5.724l1.007.106c.848,0,1.272-.212,1.272-.583,0-.689-1.219-1.749-3.6-3.286-.954,1.325-1.59,2.12-1.855,2.438ZM36.252-21.73H16.377v-5.141H36.252Zm0,7.1H16.377v-5.777H36.252ZM38.69-11.66A49.777,49.777,0,0,1,33.178-6.1,24.091,24.091,0,0,1,26.606-13.3h9.646v1.643Zm68.317-15.953c0-1.7-1.431-2.756-3.657-2.756-3.392,0-8.586,2.438-13.621,8.851a6.151,6.151,0,0,0-4.876-2.544,8.935,8.935,0,0,0-3.445.8.753.753,0,0,1-.318.106c-.159,0-.265-.053-.265-.212,0-.106.053-.212.212-.371a35.178,35.178,0,0,0,5.777-10.388,8.062,8.062,0,0,0,3.71-3.551A4.957,4.957,0,0,0,91-39.326c0-.53-.318-.9-1.06-1.06-1.06-.212-2.438-.477-3.5-.583a3.18,3.18,0,0,0-2.173-1.166c-.795,0-1.325.424-1.325,1.113a2.051,2.051,0,0,0,.583,1.325,4.621,4.621,0,0,1,1.06,3.074,9.515,9.515,0,0,1-3.286.583,6.688,6.688,0,0,1-3.6-.954,2.118,2.118,0,0,0-1.113-.371,1.33,1.33,0,0,0-1.272,1.431,3.622,3.622,0,0,0,1.855,2.756,5.573,5.573,0,0,0,2.968.689,13.258,13.258,0,0,0,3.657-.53c-1.643,4.187-5.883,9.275-12.137,14.363a2.728,2.728,0,0,0-1.219,2.12,1.731,1.731,0,0,0,1.749,1.749,3.436,3.436,0,0,0,2.491-1.378c3.763-4.4,6.89-6.148,9.275-6.148,2.491,0,4.134,2.067,4.611,5.088C80.454-13.3,76.956-8.851,76.956-5.247c0,4.24,4.611,7.314,12.137,7.314A34.559,34.559,0,0,0,98.368.742c1.7-.477,2.438-1.219,2.438-1.855,0-1.007-1.431-1.855-3.339-1.855a6.354,6.354,0,0,0-1.643.212,36.428,36.428,0,0,1-9.646,1.59c-4.664,0-6.89-1.7-6.89-4.028,0-2.862,3.286-6.678,9.434-9.7a18.875,18.875,0,0,1-.848,4.929,3.688,3.688,0,0,0-.212,1.219,1.7,1.7,0,0,0,1.643,1.908c.954,0,2.12-.8,2.544-2.65a13.829,13.829,0,0,0,.424-3.657,15.266,15.266,0,0,0-.318-3.127l.265-.106C103.032-20.352,107.007-24.8,107.007-27.613ZM87.026-39.856a7.066,7.066,0,0,1,1.484.318c.318.106.477.212.477.424,0,.106-.053.212-.212.371a9.91,9.91,0,0,1-1.378.9A4.877,4.877,0,0,0,87.026-39.856Zm3.657,19.822c3.975-5.671,8.692-7.9,11.024-7.9.9,0,1.484.318,1.484.954,0,1.537-3.127,4.664-11.819,8.48A13.512,13.512,0,0,0,90.683-20.034Zm69.748-10.653a1.891,1.891,0,0,0,.583-1.166,3.317,3.317,0,0,0-1.7-2.332,66.892,66.892,0,0,0,8.321-4.24l1.484-.371c.424-.106.636-.318.636-.583q0-.875-3.5-3.816l-1.908,2.12h-20.14l.742,1.325h19.239a43.115,43.115,0,0,1-6.2,4.717l-.318-.159a31.688,31.688,0,0,0-7.579-2.491l-.53,1.06a20.352,20.352,0,0,1,7.9,5.088c.265.318.53.583.795.848H147.976a27.772,27.772,0,0,0-3.5-1.484V-3.922h2.968V-14.946h8.692v9.752h2.968v-9.752h9.328v5.088c0,.954-.53,1.431-1.643,1.431a45.636,45.636,0,0,1-4.982-.318V-7.42a15.315,15.315,0,0,1,3.71.954,2.082,2.082,0,0,1,1.325,2.173c3.074,0,4.611-1.325,4.611-3.922V-28.249l1.166-.8c.318-.212.477-.424.477-.689,0-.477-1.06-1.537-3.127-3.18l-1.961,2.226ZM129.691-40.7a16.192,16.192,0,0,1,5.194,7.1c.477,1.325,1.166,1.961,1.961,1.961,1.272,0,1.908-.689,1.908-2.12,0-2.809-2.756-5.406-8.321-7.9Zm17.755,11.342h8.692V-23.8h-8.692ZM168.434-23.8h-9.328v-5.565h9.328Zm-30.051,4.77,1.325-.795a.673.673,0,0,0,.371-.583c.053-.53-1.007-1.643-3.18-3.392l-2.014,2.544H127.73l.53,1.325h7.155V-5.512a43.49,43.49,0,0,1-7.526,5.247c1.484,2.65,2.6,3.975,3.286,3.975q.636,0,.636-2.067a46.991,46.991,0,0,0,5.671-7.261,14.021,14.021,0,0,0,7.261,6.1c3.233,1.325,8.9,2.014,16.907,2.014h12.561A9.223,9.223,0,0,1,175.8-.954c-5.883.477-10.812.742-14.893.742-6.678,0-11.713-.53-15.158-1.59A12.6,12.6,0,0,1,138.383-7Zm17.755-3.445v6.2h-8.692v-6.2Zm12.3,6.2h-9.328v-6.2h9.328Zm43.99,18.285c6.36,0,14.363-4.028,20.935-11.978a1.716,1.716,0,0,0,.477-1.007.433.433,0,0,0-.477-.424,1.628,1.628,0,0,0-1.113.583c-6.254,6.042-13.3,9.381-18.709,9.381-5.035,0-8.639-2.915-8.639-9.222,0-.477,0-1.007.053-1.537C205.958-23.8,207.76-30.1,207.76-33.973a5.28,5.28,0,0,0-3.127-5.353,2.562,2.562,0,0,0-1.113-.318c-.583,0-.9.318-.9.795a2.25,2.25,0,0,0,.53,1.325A4.962,4.962,0,0,1,204-34.238c0,3.127-1.06,8.957-2.279,22.313-.053.742-.106,1.431-.106,2.067C201.612-1.855,206.223,2.014,212.424,2.014Zm19.451-31.906a1.631,1.631,0,0,0,1.7-1.643,2.3,2.3,0,0,0-1.06-1.855A9.413,9.413,0,0,0,227-34.98c-.53,0-1.113.053-1.643.106-.742.106-1.113.477-1.113.848,0,.424.371.848,1.113,1.007a12.637,12.637,0,0,1,4.77,2.385A2.742,2.742,0,0,0,231.875-29.892Zm-4.187,3.975a1.677,1.677,0,0,0,1.749-1.643,2.629,2.629,0,0,0-1.166-1.961,9.771,9.771,0,0,0-6.784-2.279c-.265,0-.583.053-.848.053-.795,0-1.166.371-1.166.795s.265.8,1.007,1.06a14.97,14.97,0,0,1,5.194,3.074A3.08,3.08,0,0,0,227.688-25.917Zm65.084-11.236c-12.508,0-23.585,6.89-30.634,6.89a7.3,7.3,0,0,1-3.286-.689,3.433,3.433,0,0,0-1.219-.371,1.016,1.016,0,0,0-1.06,1.113,4.066,4.066,0,0,0,2.385,3.127,5.521,5.521,0,0,0,2.809.689c4.24,0,9.964-3.6,17.119-5.83-3.18,3.074-6.413,8.215-6.413,17.119,0,9.116,1.8,14.416,12.137,14.416A26.327,26.327,0,0,0,287.419-.8c1.431-.106,2.067-.742,2.067-1.431,0-1.06-1.378-2.279-3.922-2.279a5.451,5.451,0,0,0-.9.053,21.831,21.831,0,0,1-2.544.159c-5.565,0-7.208-2.756-7.208-9.805v-.954C275.176-26.765,278.78-30,283.6-33.443a31.579,31.579,0,0,1,6.042-.583,26.7,26.7,0,0,1,4.5.371,2.58,2.58,0,0,0,.636.053c1.113,0,1.59-.53,1.59-1.166C296.376-35.775,295.051-37.153,292.772-37.153Z" transform="translate(102 403)" fill="#050505"/>
    <path id="パス_130010" data-name="パス 130010" d="M35.775-12.3v4.24H38.9V-26.871H49.926l.583-1.007a26.788,26.788,0,0,0-2.7-3.021l-.954-.954L44.1-28.2H38.9V-39.8c1.537-.53,2.332-1.007,2.332-1.484,0-.795-1.8-1.272-5.459-1.431V-28.2H26.447V-39.7c1.643-.583,2.491-1.113,2.491-1.537,0-.8-1.855-1.272-5.618-1.431V-28.2H13.833V-38.319c1.537-.53,2.279-1.007,2.279-1.484,0-.848-1.855-1.325-5.512-1.431V-28.2H2.544l.53,1.325H10.6V3.816h3.233V-.848h34.45l.689-1.166a53.365,53.365,0,0,0-4.028-3.869l-2.968,3.71H13.833v-24.7H23.32V-7.738h3.127V-12.3Zm-9.328-1.325v-13.25h9.328v13.25ZM76-40.015a30.9,30.9,0,0,0-3.816-1.7v21.624h3.021v-2.6h7.261C78.6-16.8,72.769-12.349,65.031-9.328l.8,1.166a42.28,42.28,0,0,0,14.416-7.685v4.028c0,7.155-3.6,12.137-10.865,14.946l.848,1.219C78.97,1.961,83.369-3.445,83.369-11.766v-1.643c1.219-.477,1.855-.9,1.855-1.272,0-.689-1.59-1.166-4.77-1.378a31.285,31.285,0,0,0,5.883-6.625h5.512c4.293,5.565,10.547,9.805,18.815,12.614a8.729,8.729,0,0,1,2.385-3.233q-12.164-2.783-19.239-9.381h8.427v1.961h3.021V-37.842l1.537-.9c.265-.159.424-.318.424-.53,0-.53-1.113-1.643-3.339-3.392l-2.173,2.65Zm-.795,1.325H87.132v6.413H75.207Zm14.946,0h12.084v6.413H90.153ZM75.207-24.009v-6.943H87.132v6.943Zm27.03-6.943v6.943H90.153v-6.943ZM94.5,3.6h3.074V-13.568c1.272-.477,1.908-.954,1.908-1.325,0-.689-1.643-1.113-4.982-1.272Zm41.128-34.662a37.754,37.754,0,0,0-3.657-1.8V-9.487h3.18v-4.346h14.257V3.816h3.233V-13.833h14.84v3.6h3.18V-28.673l1.484-.9a.717.717,0,0,0,.477-.636c0-.477-1.166-1.7-3.445-3.551L167-31.058H152.64v-9.01q2.385-.875,2.385-1.59c0-.8-1.855-1.219-5.618-1.378v11.978Zm-.477,1.325h14.257v14.575H135.15Zm32.33,14.575H152.64V-29.733h14.84ZM201.029,2.12c.9,0,1.643-.689,1.643-1.961a4.851,4.851,0,0,0-.265-1.325A27.79,27.79,0,0,1,200.976-8.9a13.054,13.054,0,0,1,1.272-5.618,3.5,3.5,0,0,0,.318-1.166c0-.265-.106-.424-.318-.424-.265,0-.689.318-1.219.954a14.117,14.117,0,0,0-1.855,3.445c-.159.477-.424.742-.583.742s-.265-.265-.265-.848c.212-9.7,4.4-15.529,4.4-19.928a5.371,5.371,0,0,0-1.06-3.392c-1.06-1.378-2.014-1.961-2.6-1.961a.7.7,0,0,0-.689.795,3.617,3.617,0,0,0,.53,1.643,5.926,5.926,0,0,1,.583,2.809c0,4.664-3.392,11.713-3.392,20.193A29.231,29.231,0,0,0,198.485,0,3.118,3.118,0,0,0,201.029,2.12Zm22-31.694a17.667,17.667,0,0,0,5.777-.848c1.166-.371,1.749-1.166,1.749-1.855,0-.742-.636-1.378-1.749-1.378a2.944,2.944,0,0,0-1.113.212,25.889,25.889,0,0,1-7.526,1.325,16.308,16.308,0,0,1-4.664-.689,2.735,2.735,0,0,0-.583-.106c-.424,0-.689.212-.689.53s.265.689.9,1.06A16.8,16.8,0,0,0,223.024-29.574Zm3.5,28.143a28,28,0,0,0,6.466-.8c1.643-.424,2.332-1.166,2.332-1.855,0-.954-1.219-1.855-3.021-1.855a6.758,6.758,0,0,0-1.007.053,43.845,43.845,0,0,1-7.791.954,12.625,12.625,0,0,1-8.48-2.915,1.963,1.963,0,0,0-1.113-.477.545.545,0,0,0-.583.53,2.152,2.152,0,0,0,.424,1.007C216.558-3.074,221.275-1.431,226.522-1.431ZM274.8-32.807H257.951l.583,1.325h36.411l.636-.9a18.96,18.96,0,0,0-3.5-3.286l-2.544,2.862H277.826v-4.664h20.829l.583-1.007a28.707,28.707,0,0,0-3.6-3.551l-2.65,3.233H277.826v-2.385q2.226-.8,2.226-1.431c0-.742-1.749-1.219-5.247-1.378V-38.8h-20.67l.583,1.325H274.8Zm-9.7,4.929c-1.219-.583-2.332-1.06-3.392-1.484v11.448h2.968v-2.067H288v1.8h2.968V-25.6l1.007-.8a1.1,1.1,0,0,0,.477-.742q0-.636-3.021-2.862l-1.855,2.12Zm-.424,1.325H288v5.247h-23.32ZM271.254-13.2a1.752,1.752,0,0,0,.848-1.431c0-1.7-1.8-3.18-5.406-4.505l-.636.9a7.471,7.471,0,0,1,2.65,3.71,2.645,2.645,0,0,0,.742,1.325H253.075l.477,1.325H299.5l.583-.954a22.8,22.8,0,0,0-3.816-3.763l-2.7,3.392H282.543a26.269,26.269,0,0,0,2.809-3.127c1.325-.053,1.961-.265,1.961-.636,0-.53-1.431-1.378-4.24-2.491a32.49,32.49,0,0,1-2.226,6.254Zm-6.943,4.876a39.825,39.825,0,0,0-3.657-1.643V3.869h3.074V1.007h25.493V3.869h3.127V-5.936l1.166-.848c.371-.265.583-.477.583-.742,0-.477-1.113-1.484-3.286-2.968L288.85-8.321ZM263.728-7h25.493V-.318H263.728ZM363-36.252a1.631,1.631,0,0,0,1.7-1.643,2.3,2.3,0,0,0-1.06-1.855,9.413,9.413,0,0,0-5.512-1.59c-.53,0-1.113.053-1.643.106-.742.106-1.113.477-1.113.848,0,.424.371.848,1.113,1.007a12.637,12.637,0,0,1,4.77,2.385A2.742,2.742,0,0,0,363-36.252ZM334.324,1.219c11.183,0,17.172-9.116,17.172-21.2a41.412,41.412,0,0,0-1.219-9.858v-.212q0-.318.159-.318c.106,0,.265.159.371.371a29.216,29.216,0,0,0,7.049,8.851,3.357,3.357,0,0,0,1.961.8,1.489,1.489,0,0,0,1.59-1.537,3.178,3.178,0,0,0-1.431-2.332c-4.293-3.392-7.844-6.731-10.759-14.1a2.237,2.237,0,0,0-2.014-1.537,1.445,1.445,0,0,0-1.537,1.537,3.349,3.349,0,0,0,.265,1.113,47.107,47.107,0,0,1,3.18,16.854c0,9.169-3.233,18.073-14.522,18.073-6.731,0-9.752-4.187-9.752-9.805,0-6.784,4.4-15.635,12.137-21.889a3.015,3.015,0,0,0,1.166-2.279,1.723,1.723,0,0,0-1.8-1.8,4.373,4.373,0,0,0-2.014.636,13.513,13.513,0,0,1-6.466,2.067,5.3,5.3,0,0,1-2.279-.424,2.186,2.186,0,0,0-1.007-.318.75.75,0,0,0-.8.8,2.575,2.575,0,0,0,1.484,2.014,7.223,7.223,0,0,0,3.339.795,8.74,8.74,0,0,0,4.24-1.113.753.753,0,0,1,.318-.106.242.242,0,0,1,.265.212.284.284,0,0,1-.159.212c-7.579,7.844-10.918,15.847-10.918,22.154C322.346-3.869,326.8,1.219,334.324,1.219Zm24.486-33.5a1.677,1.677,0,0,0,1.749-1.643,2.629,2.629,0,0,0-1.166-1.961,9.771,9.771,0,0,0-6.784-2.279c-.265,0-.583.053-.848.053-.8,0-1.166.371-1.166.795s.265.8,1.007,1.06a14.97,14.97,0,0,1,5.194,3.074A3.08,3.08,0,0,0,358.81-32.277ZM413.665-5.406a5.137,5.137,0,0,0-1.219.159,35.88,35.88,0,0,1-10.918,1.908c-5.565,0-9.116-1.908-9.116-4.929,0-3.71,5.512-9.169,19.5-14.734,2.915-1.166,4.24-2.968,4.24-4.611a3.531,3.531,0,0,0-2.014-3.074,4.281,4.281,0,0,0-2.067-.689c-.689,0-1.06.318-1.06.795a1.871,1.871,0,0,0,.371.848,2.813,2.813,0,0,1,.53,1.484,2.591,2.591,0,0,1-1.749,2.332A73.589,73.589,0,0,0,401-21.306c-2.385-1.7-2.756-4.4-2.756-7.261,0-1.272.106-2.6.106-3.816,0-3.021-.424-5.724-3.392-7a6.03,6.03,0,0,0-2.226-.53c-.848,0-1.272.318-1.272.795,0,.424.318.954,1.113,1.378,3.657,2.067,1.272,13.727,7.155,17.278-6.784,4.4-9.964,8.851-9.964,12.455,0,4.505,5.035,7.632,14.045,7.632a52.129,52.129,0,0,0,11.024-1.272c1.484-.265,2.067-.9,2.067-1.59C416.9-4.293,415.414-5.406,413.665-5.406ZM475.41-23.267a38.7,38.7,0,0,1-4.4-11.978h14.522l.583-1.007A24.82,24.82,0,0,0,482.83-39.8l-2.173,3.233H470.8a38.681,38.681,0,0,1-.424-4.876c1.166-.424,1.749-.848,1.749-1.219,0-.689-1.59-1.166-4.77-1.325a53.836,53.836,0,0,0,.583,7.579H449.228A40.069,40.069,0,0,0,445.465-38v9.646c0,8.321-1.8,14.893-5.406,19.61l.954.9c5.035-4.505,7.579-11.342,7.579-20.458v-6.784h19.557a39.611,39.611,0,0,0,5.406,14.257,35.181,35.181,0,0,1-8.268,8.321l-.371.318a15.478,15.478,0,0,0-2.65-1.272l-.689.954c2.756,2.173,4.558,4.293,5.406,6.466.371,1.007.954,1.484,1.7,1.484,1.219,0,1.8-.636,1.8-1.961,0-1.537-1.431-3.18-4.24-4.929a34.738,34.738,0,0,0,9.063-7.314c3.657,4.611,6.89,6.89,9.7,6.89q1.988,0,2.226-2.544c-1.219-.371-1.8-2.014-1.8-5.035,0-.954.053-2.332.159-4.081l-1.378-.742c-.424,5.353-1.007,8-1.749,8-1.113,0-2.915-1.643-5.406-4.876l.212-.265a44.68,44.68,0,0,0,4.77-7.844c1.484,0,2.226-.212,2.226-.689q0-1.034-4.134-2.862A44.438,44.438,0,0,1,475.41-23.267Zm-2.014-19.4a7.547,7.547,0,0,1,3.18,3.763,1.561,1.561,0,0,0,1.537,1.272,1.53,1.53,0,0,0,1.749-1.7c0-1.961-1.961-3.339-5.883-4.24ZM461.9-30.634h-11.66l.477,1.325h15.794l.636-1.06a37.967,37.967,0,0,0-2.968-3.074Zm-6.784,5.83a29.139,29.139,0,0,0-3.127-1.219v12.084h2.862v-2.385h7.261v1.484h2.862v-7.791l1.06-.689a.743.743,0,0,0,.424-.583c0-.477-1.007-1.431-2.968-2.915l-1.7,2.014Zm-.265,1.325h7.261v5.83h-7.261Zm21.73,13.25c3.657,3.021,6.042,5.989,7.155,8.851C484.208-.106,484.9.53,485.692.53c1.272,0,1.908-.742,1.908-2.173,0-3.233-3.445-6.466-10.282-9.646Zm-1.908,3.18c-.212,4.293-1.113,6.572-2.7,6.89a65.422,65.422,0,0,1-7.579.265,30.261,30.261,0,0,1-5.83-.318q-.875-.239-.954-1.59V-8.533c1.219-.477,1.855-.954,1.855-1.325,0-.742-1.643-1.166-4.876-1.325V-.954c0,1.7.53,2.809,1.537,3.286.9.424,4.028.636,9.328.636a79.727,79.727,0,0,0,10.07-.424,3.1,3.1,0,0,0,2.7-3.074,1.846,1.846,0,0,1-1.855-1.219,23.072,23.072,0,0,1-.318-4.929Zm-26.288-3.5c-.9,4.293-2.7,7.155-5.406,8.692-1.06.583-1.59,1.166-1.59,1.8a1.84,1.84,0,0,0,.53,1.325,2.22,2.22,0,0,0,1.537.742c1.113,0,2.332-.848,3.551-2.544a17.163,17.163,0,0,0,2.7-9.805ZM535.724-28.62l-.053.848a64.119,64.119,0,0,1-1.908,14.31A32.465,32.465,0,0,1,523.11,2.809l.9,1.06A29.533,29.533,0,0,0,534.558-7.579c2.544-5.141,3.975-11.925,4.24-20.352a5.155,5.155,0,0,0,.053-.954h6.784v3.074q-.079,14.946-1.431,21.783A3.674,3.674,0,0,1,540.282-.8a38.268,38.268,0,0,1-6.254-.636V.053a25.355,25.355,0,0,1,5.194,1.272,2.243,2.243,0,0,1,1.643,2.067A5.8,5.8,0,0,0,546.112.371c1.749-2.756,2.6-12.243,2.65-28.408l1.166-.9a.819.819,0,0,0,.371-.636c0-.371-1.007-1.431-3.074-3.18l-1.961,2.544H538.9v-10.6c1.431-.477,2.12-.9,2.12-1.378q-.08-1.113-5.247-1.272v13.515h-7.314l.583,1.325Zm-17.7.795v-4.5h12.349l.53-.9a31.213,31.213,0,0,0-3.18-3.286l-2.279,2.862h-7.42v-4.717c2.915-.371,5.512-.742,7.738-1.113a10.843,10.843,0,0,0,1.643.265c.583,0,.848-.159.848-.477,0-.583-.9-1.643-2.756-3.18a93.013,93.013,0,0,1-21.836,4.293l.477,1.378c3.021-.159,6.254-.371,9.7-.742l1.113-.106v4.4H503.076l.53,1.325h11.342v4.5h-5.777a18.879,18.879,0,0,0-3.339-1.59v16.271h2.862v-2.12h6.254v5.035H504.136l.53,1.325h10.282v5.512l-.8.106c-3.816.53-7.579.954-11.342,1.219.8,3.127,1.537,4.664,2.226,4.664.424,0,.795-.689,1.06-2.014a208.665,208.665,0,0,0,23.32-5.035l-.265-1.378c-4.823.954-8.533,1.643-11.13,2.014V-8.9h10.706l.583-1.007a21.573,21.573,0,0,0-3.127-3.074l-2.332,2.756h-5.83v-5.035h6.466v1.59h2.862V-25.758l.9-.689c.371-.265.53-.53.53-.742,0-.371-.954-1.325-2.862-2.756l-1.855,2.12ZM514.948-26.5v4.187h-6.254V-26.5Zm9.54,4.187h-6.466V-26.5h6.466Zm-15.794,5.724v-4.4h6.254v4.4Zm15.794-4.4v4.4h-6.466v-4.4Zm82.839-6.625c0-1.7-1.431-2.756-3.657-2.756-3.392,0-8.586,2.438-13.621,8.851a6.151,6.151,0,0,0-4.876-2.544,8.935,8.935,0,0,0-3.445.8.753.753,0,0,1-.318.106c-.159,0-.265-.053-.265-.212,0-.106.053-.212.212-.371a35.179,35.179,0,0,0,5.777-10.388,8.062,8.062,0,0,0,3.71-3.551,4.957,4.957,0,0,0,.477-1.643c0-.53-.318-.9-1.06-1.06-1.06-.212-2.438-.477-3.5-.583a3.18,3.18,0,0,0-2.173-1.166c-.795,0-1.325.424-1.325,1.113a2.051,2.051,0,0,0,.583,1.325,4.621,4.621,0,0,1,1.06,3.074,9.514,9.514,0,0,1-3.286.583,6.688,6.688,0,0,1-3.6-.954,2.119,2.119,0,0,0-1.113-.371,1.33,1.33,0,0,0-1.272,1.431,3.622,3.622,0,0,0,1.855,2.756,5.573,5.573,0,0,0,2.968.689,13.258,13.258,0,0,0,3.657-.53c-1.643,4.187-5.883,9.275-12.137,14.363a2.729,2.729,0,0,0-1.219,2.12,1.731,1.731,0,0,0,1.749,1.749A3.436,3.436,0,0,0,575-16.165c3.763-4.4,6.89-6.148,9.275-6.148,2.491,0,4.134,2.067,4.611,5.088-8.109,3.922-11.607,8.374-11.607,11.978,0,4.24,4.611,7.314,12.137,7.314A34.56,34.56,0,0,0,598.688.742c1.7-.477,2.438-1.219,2.438-1.855,0-1.007-1.431-1.855-3.339-1.855a6.354,6.354,0,0,0-1.643.212,36.428,36.428,0,0,1-9.646,1.59c-4.664,0-6.89-1.7-6.89-4.028,0-2.862,3.286-6.678,9.434-9.7a18.873,18.873,0,0,1-.848,4.929,3.688,3.688,0,0,0-.212,1.219,1.7,1.7,0,0,0,1.643,1.908c.954,0,2.12-.8,2.544-2.65a13.829,13.829,0,0,0,.424-3.657,15.264,15.264,0,0,0-.318-3.127l.265-.106C603.352-20.352,607.327-24.8,607.327-27.613ZM587.346-39.856a7.067,7.067,0,0,1,1.484.318c.318.106.477.212.477.424,0,.106-.053.212-.212.371a9.906,9.906,0,0,1-1.378.9A4.878,4.878,0,0,0,587.346-39.856ZM591-20.034c3.975-5.671,8.692-7.9,11.024-7.9.9,0,1.484.318,1.484.954,0,1.537-3.127,4.664-11.819,8.48A13.506,13.506,0,0,0,591-20.034Z" transform="translate(102 491)" fill="#050505"/>
  </g>
</svg>
