<svg xmlns="http://www.w3.org/2000/svg" width="66" height="66" viewBox="0 0 66 66">
  <g id="icon_service_02_03" transform="translate(-506 -1275.857)">
    <circle id="楕円形_441" data-name="楕円形 441" cx="33" cy="33" r="33" transform="translate(506 1275.857)" fill="#fff"/>
    <g id="video_1_" data-name="video (1)" transform="translate(523.41 1290.781)">
      <path id="パス_124750" data-name="パス 124750" d="M28.53,13.383H6.438l21.22-6.147a.648.648,0,0,0,.442-.8L26.989,2.6A3.625,3.625,0,0,0,23.523,0a3.588,3.588,0,0,0-1,.142L2.6,5.913A3.612,3.612,0,0,0,.143,10.377l1.085,3.745V29.551a3.608,3.608,0,0,0,3.6,3.6h7.781a.648.648,0,0,0,0-1.3H4.832a2.311,2.311,0,0,1-2.309-2.309V20.738h25.36v8.812a2.311,2.311,0,0,1-2.309,2.309H17.793a.648.648,0,0,0,0,1.3h7.781a3.608,3.608,0,0,0,3.6-3.6V14.031A.647.647,0,0,0,28.53,13.383Zm-11.418,6.06,2.751-4.765h3.578l-2.751,4.765Zm-5.074,0,2.751-4.765h3.578l-2.751,4.765Zm-5.074,0,2.751-4.765h3.579l-2.751,4.765ZM9.372,11.06,4.764,6.635l3.452-1a.642.642,0,0,0,.085.1l4.607,4.425-3.452,1A.644.644,0,0,0,9.372,11.06Zm8.677-8.149,4.607,4.425-3.452,1a.631.631,0,0,0-.085-.1L14.512,3.812l3.452-1A.642.642,0,0,0,18.049,2.912ZM13.175,4.324l4.607,4.425-3.452,1a.631.631,0,0,0-.085-.1L9.638,5.224l3.452-1A.684.684,0,0,0,13.175,4.324Zm9.711-2.938a2.289,2.289,0,0,1,.637-.091,2.323,2.323,0,0,1,2.223,1.666l.93,3.211-2.6.753a.658.658,0,0,0-.085-.1L19.386,2.4ZM1.585,8.263A2.292,2.292,0,0,1,2.962,7.157l.38-.11a.659.659,0,0,0,.085.1l4.607,4.425L2.317,13.228l-.93-3.211A2.292,2.292,0,0,1,1.585,8.263Zm.938,6.416h5.7L5.469,19.443H2.523Zm19.663,4.765,2.751-4.765h2.946v4.765Zm0,0" transform="translate(0)" fill="#c9a200" fill-rule="evenodd"/>
      <path id="パス_124751" data-name="パス 124751" d="M203.051,348.324a.647.647,0,0,0-.324-.561l-5.689-3.284a.648.648,0,0,0-.971.561v6.569a.647.647,0,0,0,.971.561l5.689-3.284A.647.647,0,0,0,203.051,348.324Zm-5.689,2.163v-4.326l3.746,2.163Zm0,0" transform="translate(-183.37 -322.091)" fill="#c9a200" fill-rule="evenodd"/>
      <path id="パス_124752" data-name="パス 124752" d="M225.421,492a.648.648,0,1,0,.648.648A.649.649,0,0,0,225.421,492Zm0,0" transform="translate(-210.218 -460.141)" fill="#c9a200" fill-rule="evenodd"/>
    </g>
  </g>
</svg>
