<svg xmlns="http://www.w3.org/2000/svg" width="66" height="66" viewBox="0 0 66 66">
  <g id="icon_service_02_01" transform="translate(-506 -1102.557)">
    <circle id="楕円形_441" data-name="楕円形 441" cx="33" cy="33" r="33" transform="translate(506 1102.557)" fill="#fff"/>
    <g id="meal" transform="translate(521.533 1067.033)">
      <path id="パス_130069" data-name="パス 130069" d="M443.646,84.562l-.39-8.977.389-14.517c.053-.512-.509-1.47-1.378-1.268-1.071.162-1.854,1.682-2,1.988v0a16.179,16.179,0,0,0-1.568,5.228,21.9,21.9,0,0,0,1.165,8.633l-.359,5.176a.512.512,0,0,0,1.021.071l.333-4.8h1.4l.37,8.5a1.185,1.185,0,1,1-2.367.126l.1-1.437a.512.512,0,0,0-1.021-.071l-.1,1.468a2.208,2.208,0,1,0,4.413-.129ZM439.717,67.1a15.364,15.364,0,0,1,1.471-4.864c.258-.537.828-1.359,1.232-1.42.145-.039.173.075.2.254l-.376,14.011h-1.5A20.8,20.8,0,0,1,439.717,67.1Z" transform="translate(-408.715 -4.638)" fill="#c9a200"/>
      <path id="パス_130070" data-name="パス 130070" d="M7.2,56.136A1.592,1.592,0,0,0,5.663,54.8a1.462,1.462,0,0,0-1.047.4,1.511,1.511,0,0,0-1.052-.4H3.556a1.515,1.515,0,0,0-1.027.385A1.429,1.429,0,0,0,1.5,54.8,1.525,1.525,0,0,0,0,56.137l.005,5.076a5.24,5.24,0,0,0,1.013,3.1l.239.329A3.368,3.368,0,0,1,1.9,66.773L1.27,80a2.3,2.3,0,0,0,2.357,2.25A2.29,2.29,0,0,0,5.8,79.854l-.122-3.126a.512.512,0,1,0-1.023.04l.122,3.127a1.265,1.265,0,0,1-1.189,1.331,1.27,1.27,0,0,1-1.29-1.2l.513-10.77h1.55l.2,5.121a.512.512,0,1,0,1.023-.04l-.3-7.566a3.371,3.371,0,0,1,.651-2.117l.236-.322A5.241,5.241,0,0,0,7.2,61.218Zm-1.029,5.08a4.224,4.224,0,0,1-.826,2.508l-.236.322a4.4,4.4,0,0,0-.848,2.762l.056,1.421H2.856l.067-1.407a4.4,4.4,0,0,0-.837-2.786l-.239-.329a4.224,4.224,0,0,1-.817-2.495l-.005-5.04a.471.471,0,0,1,.478-.349c.318,0,.406.159.5.4l.011.026V61.9a.512.512,0,1,0,1.023,0V56.232a.522.522,0,0,1,.522-.408h0a.523.523,0,0,1,.525.408V61.9a.512.512,0,1,0,1.023,0v-5.64l0-.007c.127-.281.252-.433.547-.433a.635.635,0,0,1,.514.371Z" fill="#c9a200"/>
      <path id="パス_130071" data-name="パス 130071" d="M111.863,98.936a.512.512,0,1,0-.558.858,10.233,10.233,0,1,1-2.014-1.013.512.512,0,0,0,.356-.96,11.318,11.318,0,1,0,2.216,1.115Z" transform="translate(-87.965 -39.435)" fill="#c9a200"/>
      <path id="パス_130072" data-name="パス 130072" d="M140.722,150.608a7.755,7.755,0,0,1-7.635-6.354.512.512,0,0,0-1.007.184,8.79,8.79,0,1,0-.1-2.5.512.512,0,1,0,1.018.1,7.763,7.763,0,1,1,7.722,8.561Z" transform="translate(-122.975 -73.857)" fill="#c9a200"/>
    </g>
  </g>
</svg>
