<svg xmlns="http://www.w3.org/2000/svg" width="66" height="66" viewBox="0 0 66 66">
  <g id="icon_service_02_05" transform="translate(-507 -1445.465)">
    <circle id="楕円形_441" data-name="楕円形 441" cx="33" cy="33" r="33" transform="translate(507 1445.465)" fill="#fff"/>
    <g id="global-network" transform="translate(521.805 1458.48)">
      <path id="パス_124712" data-name="パス 124712" d="M25.587,41.925a8.337,8.337,0,1,0-8.337-8.337A8.337,8.337,0,0,0,25.587,41.925Zm-3.8-3.414.533-1.687a.424.424,0,0,0-.3-.539l-.923-.23-.735-1.8V33.163h2.334l1.444.481.492,1.23a.424.424,0,0,0,.31.258l1.072.214v1.086l-1.461.731a.424.424,0,0,0-.234.379v.973L22.64,40.47c-.179-.077-.352-.163-.523-.252Zm9.495-.068-.464-.287V36.979a.424.424,0,0,0-.234-.379l-.841-.42.5-2.509a.424.424,0,0,0-.116-.383l-.848-.848a.424.424,0,0,0-.4-.111l-.948.237-1.387-.925-.212-1.269,1.1-.882h1.406L30.986,31.1a.424.424,0,0,0,.421.051l1.085-.465A7.465,7.465,0,0,1,31.279,38.442Zm.834-8.517-.816.35-2.065-1.549a.425.425,0,0,0-.254-.085h-1.7a.424.424,0,0,0-.265.093l-1.413,1.13a.424.424,0,0,0-.153.4l.283,1.7a.424.424,0,0,0,.183.283l1.7,1.13a.425.425,0,0,0,.338.059l.9-.224.518.518-.521,2.6a.424.424,0,0,0,.226.462l.9.448v1.151a.424.424,0,0,0,.2.361l.508.314A7.427,7.427,0,0,1,23.5,40.774l1.565-1.823a.422.422,0,0,0,.1-.276v-.869l1.461-.731a.424.424,0,0,0,.234-.379V35a.424.424,0,0,0-.341-.416l-1.188-.237-.48-1.2a.424.424,0,0,0-.259-.245l-1.7-.565a.426.426,0,0,0-.134-.022h-1.23L24.1,30.847a.424.424,0,0,0,.214-.368V29.01l1.507-1a.424.424,0,0,0-.046-.732l-1.93-.962a7.436,7.436,0,0,1,8.267,3.615Zm-9.423-3.244,2.053,1.024-1.087.725a.424.424,0,0,0-.189.353v1.45l-3.517,2.01-1.479-.979A7.524,7.524,0,0,1,22.691,26.682Zm-4.448,5.447,1.268.839v1.374a.427.427,0,0,0,.031.161l.848,2.072a.424.424,0,0,0,.29.251l.694.173-.43,1.36a.424.424,0,0,0-.012.209l.2,1.026a7.454,7.454,0,0,1-2.888-7.464Z" transform="translate(-7.391 -10.869)" fill="#c9a200"/>
      <path id="パス_124713" data-name="パス 124713" d="M23.674,12.4h9.044a.424.424,0,0,0,.424-.424v-1.7a3.236,3.236,0,0,0-.131-.906l-.465-5.153a4.367,4.367,0,0,0-8.7,0l-.465,5.153a3.236,3.236,0,0,0-.131.906v1.7A.424.424,0,0,0,23.674,12.4Zm8.62-.848H24.1V10.283a2.4,2.4,0,0,1,2.374-2.4,2.925,2.925,0,0,0,3.449,0,2.4,2.4,0,0,1,2.374,2.4ZM30.316,5.478a2.12,2.12,0,1,1-4.239,0V5.055h.856a2.454,2.454,0,0,0,1.829-.809,2.449,2.449,0,0,0,1.554.794ZM28.2,1.1A3.5,3.5,0,0,1,31.7,4.3l.319,3.532a3.24,3.24,0,0,0-1.36-.7,2.95,2.95,0,0,0,.5-1.65V4.631a.424.424,0,0,0-.424-.424H30.59a1.612,1.612,0,0,1-1.45-.9.442.442,0,0,0-.758,0,1.612,1.612,0,0,1-1.45.9h-1.28a.424.424,0,0,0-.424.424v.848a2.95,2.95,0,0,0,.5,1.65,3.24,3.24,0,0,0-1.36.7L24.691,4.3A3.5,3.5,0,0,1,28.2,1.1Z" transform="translate(-9.999)" fill="#c9a200"/>
      <path id="パス_124714" data-name="パス 124714" d="M7.66,48.563a2.95,2.95,0,0,0,.5-1.65v-1.7A2.971,2.971,0,0,0,5.2,42.25H2.37a.424.424,0,0,0-.411.321l-.223.89a3.374,3.374,0,0,0,.492,2.732v.721a2.95,2.95,0,0,0,.5,1.65A3.253,3.253,0,0,0,.25,51.718v1.7a.424.424,0,0,0,.424.424H9.718a.424.424,0,0,0,.424-.424v-1.7A3.253,3.253,0,0,0,7.66,48.563Zm-4.584-1.65v-.424h.856a2.454,2.454,0,0,0,1.829-.809,2.441,2.441,0,0,0,1.554.78v.453a2.12,2.12,0,1,1-4.239,0Zm-.518-3.247L2.7,43.1H5.2a2.122,2.122,0,0,1,2.12,2.12v.4a1.611,1.611,0,0,1-1.175-.873.442.442,0,0,0-.758,0,1.612,1.612,0,0,1-1.45.9H2.875a2.532,2.532,0,0,1-.316-1.975ZM9.294,52.99H1.1V51.718a2.4,2.4,0,0,1,2.374-2.4,2.925,2.925,0,0,0,3.449,0,2.4,2.4,0,0,1,2.374,2.4Z" transform="translate(0 -18.26)" fill="#c9a200"/>
      <path id="パス_124715" data-name="パス 124715" d="M53.66,48.563a2.95,2.95,0,0,0,.5-1.65v-1.7a2.968,2.968,0,0,0-5.935,0v1.7a2.95,2.95,0,0,0,.5,1.65,3.253,3.253,0,0,0-2.481,3.155v1.7a.424.424,0,0,0,.424.424h9.044a.424.424,0,0,0,.424-.424v-1.7A3.253,3.253,0,0,0,53.66,48.563Zm-4.584-1.65v-.424h.856a2.454,2.454,0,0,0,1.829-.809,2.441,2.441,0,0,0,1.554.78v.453a2.12,2.12,0,1,1-4.239,0Zm0-1.7a2.12,2.12,0,1,1,4.239,0v.4a1.611,1.611,0,0,1-1.175-.873.442.442,0,0,0-.758,0,1.612,1.612,0,0,1-1.45.9h-.856Zm6.218,7.772H47.1V51.718a2.4,2.4,0,0,1,2.374-2.4,2.925,2.925,0,0,0,3.449,0,2.4,2.4,0,0,1,2.374,2.4Z" transform="translate(-19.999 -18.26)" fill="#c9a200"/>
      <path id="パス_124716" data-name="パス 124716" d="M49.363,26.621a.565.565,0,1,0-.793-.1A.565.565,0,0,0,49.363,26.621Z" transform="translate(-20.957 -11.024)" fill="#c9a200"/>
      <path id="パス_124717" data-name="パス 124717" d="M52.107,31.668a.565.565,0,1,0-.739-.306A.565.565,0,0,0,52.107,31.668Z" transform="translate(-22.205 -13.186)" fill="#c9a200"/>
      <path id="パス_124718" data-name="パス 124718" d="M52.816,36.767a.565.565,0,1,0,.487-.634A.565.565,0,0,0,52.816,36.767Z" transform="translate(-22.851 -15.598)" fill="#c9a200"/>
      <path id="パス_124719" data-name="パス 124719" d="M9.68,37.254a.565.565,0,1,0-.487-.634A.565.565,0,0,0,9.68,37.254Z" transform="translate(-3.886 -15.598)" fill="#c9a200"/>
      <path id="パス_124720" data-name="パス 124720" d="M11.023,31.668a.565.565,0,1,0-.306-.739A.565.565,0,0,0,11.023,31.668Z" transform="translate(-4.532 -13.186)" fill="#c9a200"/>
      <path id="パス_124721" data-name="パス 124721" d="M14.56,26.517a.565.565,0,1,0-.793.1A.565.565,0,0,0,14.56,26.517Z" transform="translate(-5.781 -11.024)" fill="#c9a200"/>
      <path id="パス_124722" data-name="パス 124722" d="M18.517,22.56a.565.565,0,1,0-.793-.1A.565.565,0,0,0,18.517,22.56Z" transform="translate(-7.546 -9.259)" fill="#c9a200"/>
      <path id="パス_124723" data-name="パス 124723" d="M45.406,22.456a.565.565,0,1,0-.793.1.565.565,0,0,0,.793-.1Z" transform="translate(-19.191 -9.259)" fill="#c9a200"/>
      <path id="パス_124724" data-name="パス 124724" d="M20.848,58.128a.565.565,0,1,0,.207.772A.565.565,0,0,0,20.848,58.128Z" transform="translate(-8.586 -25.13)" fill="#c9a200"/>
      <path id="パス_124725" data-name="パス 124725" d="M42.283,58.128a.565.565,0,1,0,.772.207A.565.565,0,0,0,42.283,58.128Z" transform="translate(-18.151 -25.13)" fill="#c9a200"/>
      <path id="パス_124726" data-name="パス 124726" d="M37.113,60.269a.565.565,0,1,0,.692.4A.565.565,0,0,0,37.113,60.269Z" transform="translate(-15.844 -26.085)" fill="#c9a200"/>
      <path id="パス_124727" data-name="パス 124727" d="M26.017,60.269a.565.565,0,1,0,.4.692A.565.565,0,0,0,26.017,60.269Z" transform="translate(-10.893 -26.085)" fill="#c9a200"/>
      <circle id="楕円形_459" data-name="楕円形 459" cx="0.565" cy="0.565" r="0.565" transform="translate(17.631 34.589)" fill="#c9a200"/>
    </g>
  </g>
</svg>
