<svg xmlns="http://www.w3.org/2000/svg" xmlns:xlink="http://www.w3.org/1999/xlink" width="66" height="66" viewBox="0 0 66 66">
  <defs>
    <clipPath id="clip-path">
      <path id="path417" d="M0-682.665H39.125v39.125H0Z" transform="translate(0 682.665)" fill="#c9a200"/>
    </clipPath>
  </defs>
  <g id="icon_service_02_02" transform="translate(-506 -1186.604)">
    <circle id="楕円形_441" data-name="楕円形 441" cx="33" cy="33" r="33" transform="translate(506 1186.604)" fill="#fff"/>
    <g id="g411" transform="translate(519.438 1883.705)">
      <g id="g413" transform="translate(0 -682.665)">
        <g id="g415" clip-path="url(#clip-path)">
          <g id="g421" transform="translate(16.023 0)">
            <path id="path423" d="M-214.518,1.73a.573.573,0,0,1-.573-.573V-5.715A4.3,4.3,0,0,1-210.8-10h8.031a.573.573,0,0,1,.573.573.573.573,0,0,1-.573.573H-210.8a3.148,3.148,0,0,0-3.15,3.139V1.157A.573.573,0,0,1-214.518,1.73Z" transform="translate(215.091 10)" fill="#c9a200"/>
          </g>
          <g id="g425" transform="translate(17.563 0)">
            <path id="path427" d="M-.269-333.451a.572.572,0,0,1-.254-.059.573.573,0,0,1-.319-.514v-2.809h-6.4a4.273,4.273,0,0,1-2.519-.813.573.573,0,0,1-.129-.8.573.573,0,0,1,.8-.129,3.134,3.134,0,0,0,1.847.6H-.269a.573.573,0,0,1,.573.573v2.222l3.5-2.677a.573.573,0,0,1,.348-.118H6.06a3.148,3.148,0,0,0,3.15-3.139v-13.264a3.148,3.148,0,0,0-3.15-3.139H4.378a.573.573,0,0,1-.573-.573.573.573,0,0,1,.573-.573H6.06a4.3,4.3,0,0,1,4.3,4.285v13.264a4.3,4.3,0,0,1-4.3,4.285H4.346L.079-333.569A.573.573,0,0,1-.269-333.451Z" transform="translate(10.001 358.667)" fill="#c9a200"/>
          </g>
          <g id="g429" transform="translate(23.529 4.197)">
            <path id="path431" d="M-1.445-189.529H-6.893a4,4,0,0,1-2.511-.889l-.384-.311a.573.573,0,0,1-.085-.806.573.573,0,0,1,.806-.085l.384.311a2.853,2.853,0,0,0,1.79.634h5.448a.333.333,0,0,0,.243-.1.334.334,0,0,0,.092-.248c-.016-.349-.011-2.447,0-4.662l0-.807a.336.336,0,0,0-.336-.336l-3.7-.011a.573.573,0,0,1-.476-.257.573.573,0,0,1-.05-.539l.452-1.071a3.322,3.322,0,0,0-.175-2.924l-.059.016a4.513,4.513,0,0,1-1.13,2.988l-2.356,2.666a.573.573,0,0,1-.809.05.573.573,0,0,1-.05-.809l2.356-2.665a3.367,3.367,0,0,0,.843-2.229,1.185,1.185,0,0,1,.56-1,1.168,1.168,0,0,1,.909-.138,1.168,1.168,0,0,1,.731.557,4.475,4.475,0,0,1,.236,3.938l-.117.278,2.833.009A1.483,1.483,0,0,1,.037-196.5l0,.811c-.005,1.375-.016,4.236,0,4.6a1.47,1.47,0,0,1-.408,1.094A1.489,1.489,0,0,1-1.445-189.529Z" transform="translate(10 202.797)" fill="#c9a200"/>
          </g>
          <path id="path433" d="M359.2-515.27h-3.083a.573.573,0,0,1-.573-.573v-6.936a.573.573,0,0,1,.573-.573H359.2a.573.573,0,0,1,.573.573v6.936A.573.573,0,0,1,359.2-515.27Zm-2.51-1.146h1.936v-5.79h-1.936Z" transform="translate(-335.164 532.483)" fill="#c9a200"/>
          <g id="g435" transform="translate(1.205 17.92)">
            <path id="path437" d="M-.727,2.549A.572.572,0,0,1-.98,2.49a.573.573,0,0,1-.32-.514V-.143H-6.491A3.509,3.509,0,0,1-10-3.644V-9.427A.573.573,0,0,1-9.427-10a.573.573,0,0,1,.573.573v5.783A2.361,2.361,0,0,0-6.491-1.29H-.727a.573.573,0,0,1,.573.573V.809L2.409-1.17a.573.573,0,0,1,.8.1.573.573,0,0,1-.1.8L-.377,2.429A.573.573,0,0,1-.727,2.549Z" transform="translate(10 10)" fill="#c9a200"/>
          </g>
          <g id="g439" transform="translate(1.205 10.316)">
            <path id="path441" d="M-277.145-240.754a.574.574,0,0,1-.14-.017.573.573,0,0,1-.417-.7,2.357,2.357,0,0,0,.07-.573V-252.5a2.361,2.361,0,0,0-2.363-2.354h-10.492a2.361,2.361,0,0,0-2.363,2.354v1.238a.573.573,0,0,1-.573.573.573.573,0,0,1-.573-.573V-252.5a3.509,3.509,0,0,1,3.509-3.5h10.492a3.509,3.509,0,0,1,3.509,3.5v10.46a3.5,3.5,0,0,1-.1.851A.573.573,0,0,1-277.145-240.754Z" transform="translate(293.995 255.999)" fill="#c9a200"/>
          </g>
          <g id="g443" transform="translate(5.539 17.362)">
            <path id="path445" d="M-1.732-8.854h-7.7A.573.573,0,0,1-10-9.427.573.573,0,0,1-9.427-10h7.7a.573.573,0,0,1,.573.573A.573.573,0,0,1-1.732-8.854Z" transform="translate(10 10)" fill="#c9a200"/>
          </g>
          <g id="g447" transform="translate(5.539 19.906)">
            <path id="path449" d="M-1.732-8.854h-7.7A.573.573,0,0,1-10-9.427.573.573,0,0,1-9.427-10h7.7a.573.573,0,0,1,.573.573A.573.573,0,0,1-1.732-8.854Z" transform="translate(10 10)" fill="#c9a200"/>
          </g>
          <g id="g451" transform="translate(10.023 14.786)">
            <path id="path453" d="M-31.625-1.16a.577.577,0,0,1-.094-.008.573.573,0,0,1-.472-.659l1.272-7.7a.573.573,0,0,1,.659-.472.573.573,0,0,1,.472.659l-1.272,7.7A.573.573,0,0,1-31.625-1.16Z" transform="translate(32.199 10.002)" fill="#c9a200"/>
          </g>
          <g id="g455" transform="translate(7.478 14.786)">
            <path id="path457" d="M-31.625-1.16a.577.577,0,0,1-.094-.008.573.573,0,0,1-.472-.659l1.272-7.7a.573.573,0,0,1,.659-.472.573.573,0,0,1,.472.659l-1.272,7.7A.573.573,0,0,1-31.625-1.16Z" transform="translate(32.199 10.002)" fill="#c9a200"/>
          </g>
          <g id="g459" transform="translate(13.719 24.491)">
            <path id="path461" d="M-205.873-80.7a.572.572,0,0,1-.253-.059.573.573,0,0,1-.32-.514v-1.337h-3.517a2.657,2.657,0,0,1-2.657-2.65v-7.423a2.657,2.657,0,0,1,2.657-2.65h7.445a2.657,2.657,0,0,1,2.657,2.65v2.814a.573.573,0,0,1-.573.573.573.573,0,0,1-.573-.573v-2.814a1.509,1.509,0,0,0-1.511-1.5h-7.445a1.509,1.509,0,0,0-1.51,1.5v7.423a1.509,1.509,0,0,0,1.51,1.5h4.09a.573.573,0,0,1,.573.573v.744l1.551-1.2a.573.573,0,0,1,.35-.119h.881a1.509,1.509,0,0,0,1.511-1.5V-86.28a.573.573,0,0,1,.573-.573.573.573,0,0,1,.573.573v1.018a2.657,2.657,0,0,1-2.657,2.65h-.685l-2.32,1.791A.573.573,0,0,1-205.873-80.7Z" transform="translate(212.619 95.336)" fill="#c9a200"/>
          </g>
          <g id="g463" transform="translate(16.806 28.157)">
            <path id="path465" d="M-54.164-85.26a.573.573,0,0,1-.268-.067c-1.815-.962-3.025-1.929-3.025-3.516a2.091,2.091,0,0,1,2.063-2.208,1.905,1.905,0,0,1,1.223.436,1.879,1.879,0,0,1,1.2-.417,2.1,2.1,0,0,1,2.095,2.19c0,1.588-1.209,2.554-3.025,3.516A.573.573,0,0,1-54.164-85.26Zm-1.23-4.645a.961.961,0,0,0-.917,1.062c0,.856.568,1.49,2.147,2.359,1.579-.869,2.147-1.5,2.147-2.359a.966.966,0,0,0-.949-1.043.715.715,0,0,0-.679.422.573.573,0,0,1-.508.331.573.573,0,0,1-.521-.31A.787.787,0,0,0-55.394-89.905Z" transform="translate(57.457 91.052)" fill="#c9a200"/>
          </g>
        </g>
      </g>
    </g>
  </g>
</svg>
