<svg id="コンポーネント_29_1" data-name="コンポーネント 29 – 1" xmlns="http://www.w3.org/2000/svg" width="37" height="37" viewBox="0 0 37 37">
  <circle id="楕円形_469" data-name="楕円形 469" cx="18.5" cy="18.5" r="18.5" fill="#050505"/>
  <g id="instagram_1_" data-name="instagram (1)" transform="translate(7.67 7.669)">
    <path id="パス_130078" data-name="パス 130078" d="M10.834,5.838a4.988,4.988,0,1,0,4.988,4.988,4.987,4.987,0,0,0-4.988-4.988Zm0,8.225a3.237,3.237,0,1,1,3.237-3.237A3.236,3.236,0,0,1,10.834,14.063Z" fill="#fff"/>
    <path id="パス_130079" data-name="パス 130079" d="M15.3.069C13.3-.024,8.367-.02,6.372.069A6.472,6.472,0,0,0,1.828,1.82C-.255,3.9.011,6.71.011,10.826c0,4.213-.235,6.955,1.817,9.006,2.091,2.09,4.938,1.817,9.006,1.817,4.173,0,5.613,0,7.089-.569,2.006-.779,3.521-2.572,3.669-5.793.094-1.994.088-6.928,0-8.923-.179-3.8-2.219-6.108-6.3-6.3ZM18.45,18.454C17.084,19.82,15.19,19.7,10.807,19.7c-4.512,0-6.322.067-7.642-1.257C1.644,16.927,1.92,14.5,1.92,10.812c0-4.986-.512-8.577,4.493-8.834,1.15-.041,1.488-.054,4.382-.054l.041.027c4.809,0,8.583-.5,8.809,4.5.051,1.142.063,1.485.063,4.374,0,4.46.084,6.28-1.258,7.629Z" transform="translate(0 0)" fill="#fff"/>
    <circle id="楕円形_487" data-name="楕円形 487" cx="1.439" cy="1.439" r="1.439" transform="translate(15.087 3.696)" fill="#fff"/>
  </g>
</svg>
