<svg id="icon_youtube" xmlns="http://www.w3.org/2000/svg" width="37" height="37" viewBox="0 0 37 37">
  <circle id="楕円形_471" data-name="楕円形 471" cx="18.5" cy="18.5" r="18.5" fill="#050505"/>
  <path id="Icon_awesome-youtube" data-name="Icon awesome-youtube" d="M19.158,6.535a2.324,2.324,0,0,0-1.635-1.646A54.916,54.916,0,0,0,10.3,4.5a54.917,54.917,0,0,0-7.226.389A2.324,2.324,0,0,0,1.436,6.535a24.378,24.378,0,0,0-.386,4.48,24.378,24.378,0,0,0,.386,4.48,2.289,2.289,0,0,0,1.635,1.619A54.917,54.917,0,0,0,10.3,17.5a54.917,54.917,0,0,0,7.226-.389A2.289,2.289,0,0,0,19.158,15.5a24.378,24.378,0,0,0,.386-4.48,24.378,24.378,0,0,0-.386-4.48ZM8.406,13.765v-5.5l4.834,2.75-4.834,2.75Z" transform="translate(7.95 8.43)" fill="#fff"/>
</svg>
