<svg id="icon_facebook" xmlns="http://www.w3.org/2000/svg" width="37" height="37" viewBox="0 0 37 37">
  <circle id="楕円形_470" data-name="楕円形 470" cx="18.5" cy="18.5" r="18.5" fill="#050505"/>
  <path id="Facebook_Rounded_Solid_icon-icons.com_61562" d="M23.749,14.165a9.542,9.542,0,1,0,9.542,9.542A9.542,9.542,0,0,0,23.749,14.165Zm3.259,6.1a.165.165,0,0,1-.165.165H24.52v1.248h2.323a.165.165,0,0,1,.165.165v2.322a.165.165,0,0,1-.165.165H24.685v5.1a.165.165,0,0,1-.165.165h-2.2a.165.165,0,0,1-.165-.165v-5.1h-1.5a.165.165,0,0,1-.165-.165V21.847a.165.165,0,0,1,.165-.165h1.5V20.74a.169.169,0,0,1,0-.039c0-1.341.288-2.876,2.486-2.883h2.192a.165.165,0,0,1,.165.165v2.286Z" transform="translate(-5.208 -5.165)" fill="#fff"/>
</svg>
