<svg xmlns="http://www.w3.org/2000/svg" width="66.184" height="66.184" viewBox="0 0 66.184 66.184">
  <g id="グループ_54991" data-name="グループ 54991" transform="translate(-903.816 -1278.881)">
    <circle id="楕円形_476" data-name="楕円形 476" cx="33.092" cy="33.092" r="33.092" transform="translate(903.816 1278.881)" fill="#fff"/>
    <g id="restaurant" transform="translate(921.686 1296.75)">
      <g id="グループ_54773" data-name="グループ 54773" transform="translate(6.779 6.779)">
        <g id="グループ_54772" data-name="グループ 54772">
          <path id="パス_130048" data-name="パス 130048" d="M122.444,114a8.444,8.444,0,1,0,8.444,8.444A8.453,8.453,0,0,0,122.444,114Zm0,15.7a7.254,7.254,0,1,1,7.254-7.254A7.263,7.263,0,0,1,122.444,129.7Z" transform="translate(-114 -114)" fill="#75aa7f"/>
        </g>
      </g>
      <g id="グループ_54775" data-name="グループ 54775" transform="translate(24.855 0)">
        <g id="グループ_54774" data-name="グループ 54774">
          <path id="パス_130049" data-name="パス 130049" d="M423.274.069a.6.6,0,0,0-.612.032A10.579,10.579,0,0,0,418,8.878v7.715a3.078,3.078,0,0,0,.907,2.191l1.114,1.114v8.762a1.784,1.784,0,1,0,3.568,0V.595A.6.6,0,0,0,423.274.069ZM422.4,28.661a.595.595,0,1,1-1.189,0V19.652a.6.6,0,0,0-.174-.42l-1.288-1.288a1.9,1.9,0,0,1-.559-1.35V8.878A9.389,9.389,0,0,1,422.4,1.8Z" transform="translate(-418 0)" fill="#75aa7f"/>
        </g>
      </g>
      <g id="グループ_54777" data-name="グループ 54777" transform="translate(9.756 10.145)">
        <g id="グループ_54776" data-name="グループ 54776">
          <path id="パス_130050" data-name="パス 130050" d="M168.177,170.978a.6.6,0,0,0-.78-.313,5.461,5.461,0,0,0-3.321,5.029.595.595,0,0,0,1.189,0,4.273,4.273,0,0,1,2.6-3.935A.6.6,0,0,0,168.177,170.978Z" transform="translate(-164.075 -170.617)" fill="#75aa7f"/>
        </g>
      </g>
      <g id="グループ_54779" data-name="グループ 54779" transform="translate(14.602 9.756)">
        <g id="グループ_54778" data-name="グループ 54778">
          <path id="パス_130051" data-name="パス 130051" d="M246.182,164.075h-.03a.595.595,0,0,0,0,1.189h.026a.595.595,0,1,0,0-1.189Z" transform="translate(-245.562 -164.075)" fill="#75aa7f"/>
        </g>
      </g>
      <g id="グループ_54781" data-name="グループ 54781" transform="translate(9.748 3.86)">
        <g id="グループ_54780" data-name="グループ 54780">
          <path id="パス_130052" data-name="パス 130052" d="M177.654,68.456a11.37,11.37,0,0,0-13.392-2.311.595.595,0,1,0,.54,1.06,10.181,10.181,0,0,1,11.99,2.07.595.595,0,0,0,.863-.819Z" transform="translate(-163.937 -64.914)" fill="#75aa7f"/>
        </g>
      </g>
      <g id="グループ_54783" data-name="グループ 54783" transform="translate(8.805 21.301)">
        <g id="グループ_54782" data-name="グループ 54782">
          <path id="パス_130053" data-name="パス 130053" d="M163.318,358.352a.6.6,0,0,0-.835.1A10.177,10.177,0,0,1,149,360.7a.595.595,0,1,0-.644,1,11.366,11.366,0,0,0,15.062-2.517A.6.6,0,0,0,163.318,358.352Z" transform="translate(-148.081 -358.224)" fill="#75aa7f"/>
        </g>
      </g>
      <g id="グループ_54785" data-name="グループ 54785" transform="translate(7.016 22.239)">
        <g id="グループ_54784" data-name="グループ 54784">
          <path id="パス_130054" data-name="パス 130054" d="M119.068,374.233l-.009-.01-.01-.012a.595.595,0,1,0-.91.766l.006.007h0l.02.024a.595.595,0,1,0,.9-.775Z" transform="translate(-118 -374)" fill="#75aa7f"/>
        </g>
      </g>
      <g id="グループ_54787" data-name="グループ 54787" transform="translate(0 0)">
        <g id="グループ_54786" data-name="グループ 54786">
          <path id="パス_130055" data-name="パス 130055" d="M7.373,0a.6.6,0,0,0-.595.595V7.016H5.708s0-.007,0-.01V.595a.595.595,0,0,0-1.189,0V7.007s0,.007,0,.01H3.448s0-.007,0-.01V.595a.595.595,0,1,0-1.189,0V7.007s0,.007,0,.01H1.189V.595A.595.595,0,0,0,0,.595V7.849a3.662,3.662,0,0,0,2.2,3.344V28.661a1.784,1.784,0,1,0,3.568,0V11.193a3.662,3.662,0,0,0,2.2-3.344V.595A.6.6,0,0,0,7.373,0ZM5.008,10.2a.6.6,0,0,0-.43.571V28.661a.595.595,0,0,1-1.189,0V10.776a.6.6,0,0,0-.43-.571,2.465,2.465,0,0,1-1.744-2H6.752A2.465,2.465,0,0,1,5.008,10.2Z" fill="#75aa7f"/>
        </g>
      </g>
    </g>
  </g>
</svg>
