<svg xmlns="http://www.w3.org/2000/svg" width="66.184" height="66.184" viewBox="0 0 66.184 66.184">
  <g id="グループ_54800" data-name="グループ 54800" transform="translate(-903.816 -1551.465)">
    <circle id="楕円形_476" data-name="楕円形 476" cx="33.092" cy="33.092" r="33.092" transform="translate(903.816 1551.465)" fill="#fff"/>
    <g id="spa" transform="translate(917.219 1567.349)">
      <path id="パス_130036" data-name="パス 130036" d="M25.767,40.219H10.579a7.59,7.59,0,0,0-2.567.444.492.492,0,0,0-.273.66v0a.5.5,0,0,0,.634.263,6.6,6.6,0,0,1,2.2-.376H25.767a.5.5,0,1,0,0-.993Z" transform="translate(-4.754 -18.73)" fill="#75aa7f"/>
      <path id="パス_130037" data-name="パス 130037" d="M25.64,51.088a.5.5,0,0,0,.634-.263v0a.492.492,0,0,0-.273-.66,7.59,7.59,0,0,0-2.567-.444H8.246a.5.5,0,1,0,0,.993H23.435A6.6,6.6,0,0,1,25.64,51.088Z" transform="translate(-4.772 -21.942)" fill="#75aa7f"/>
      <path id="パス_130038" data-name="パス 130038" d="M40.809,28.544H39.575l.6-2.226a1.992,1.992,0,0,0-3.848-1.031l-.872,3.256H34.025v-8.91a.5.5,0,1,0-.993,0v8.91H27.465A3.647,3.647,0,0,0,24.429,26.3V15.857a.828.828,0,0,1,.827-.827h6.949a.828.828,0,0,1,.827.827v1.791a.5.5,0,1,0,.993,0V15.857a1.822,1.822,0,0,0-1.82-1.82h-.993V10.894A1.151,1.151,0,0,0,31,10.232a1.151,1.151,0,0,0,.208-.662V8.577a.828.828,0,0,0-.827-.827H27.076a.828.828,0,0,0-.827.827V9.57a1.151,1.151,0,0,0,.208.662,1.151,1.151,0,0,0-.208.662v3.144h-.993a1.822,1.822,0,0,0-1.82,1.82V26.281H20.223a9.61,9.61,0,0,0,2.564-4,.5.5,0,0,0-.367-.636,9.926,9.926,0,0,0-4.441.118,9.939,9.939,0,0,0-2.119-3.9.5.5,0,0,0-.734,0,9.936,9.936,0,0,0-2.119,3.9,9.923,9.923,0,0,0-4.438-.118.5.5,0,0,0-.367.636,9.609,9.609,0,0,0,2.564,4H6.89a3.637,3.637,0,0,0-1.826,6.784A3.637,3.637,0,0,0,6.89,39.849H9.617a.5.5,0,0,0,0-.993H6.89a2.647,2.647,0,1,1,0-5.295H24.1a2.647,2.647,0,1,1,0,5.295H11.6a.5.5,0,0,0,0,.993H28.731a.5.5,0,0,0,0-.993H26.588a3.628,3.628,0,0,0-.664-5.791,3.625,3.625,0,0,0,1.793-3.529H40.3A6.288,6.288,0,0,1,28.68,32.518a.5.5,0,1,0-.843.524,7.235,7.235,0,0,0,4.035,3.109,3.859,3.859,0,0,0-1.707,3.2.5.5,0,0,0,.5.5h6.727a.5.5,0,0,0,.5-.5,3.859,3.859,0,0,0-1.7-3.2,7.293,7.293,0,0,0,5.117-6.952V29.04A.5.5,0,0,0,40.809,28.544ZM27.242,10.894a.166.166,0,0,1,.165-.165h.827a.5.5,0,0,0,0-.993h-.827a.166.166,0,0,1-.165-.165V8.743H30.22V9.57a.166.166,0,0,1-.165.165.5.5,0,0,0,0,.993.166.166,0,0,1,.165.165v3.144H27.242Zm-5.607,11.63c-.4.973-1.405,2.966-3,3.565a3.069,3.069,0,0,1-2.638-.309,3.068,3.068,0,0,1,1.05-2.437C18.358,22.26,20.59,22.389,21.635,22.524Zm-6.141-3.545a8.134,8.134,0,0,1,1.55,3.181,4.071,4.071,0,0,0-.63.417,3.646,3.646,0,0,0-.919,1.133,3.646,3.646,0,0,0-.919-1.133,4.072,4.072,0,0,0-.632-.418A8.162,8.162,0,0,1,15.493,18.979ZM9.354,22.524c1.046-.134,3.277-.263,4.592.82A3.068,3.068,0,0,1,15,25.781a3.065,3.065,0,0,1-2.635.309C10.764,25.493,9.76,23.5,9.354,22.524ZM24.1,32.569H6.89a2.647,2.647,0,0,1,0-5.295H24.1a2.647,2.647,0,0,1,0,5.295Zm15.115-6.508-.665,2.483H36.48l.8-3a1,1,0,0,1,1.929.517Zm-2.364,12.8H31.2a2.867,2.867,0,0,1,5.648,0Z" transform="translate(-3.25 -7.75)" fill="#75aa7f"/>
      <path id="パス_130039" data-name="パス 130039" d="M38.246,21.956a.5.5,0,0,0-.5.5V25.43a.5.5,0,0,0,.5.5h4.3a.5.5,0,0,0,.5-.5V22.452a.5.5,0,0,0-.5-.5Zm3.806,2.978H38.743V22.948h3.309Z" transform="translate(-14.917 -12.554)" fill="#75aa7f"/>
    </g>
  </g>
</svg>
