<svg xmlns="http://www.w3.org/2000/svg" width="66" height="66" viewBox="0 0 66 66">
  <g id="icon_service_04_01" transform="translate(-904 -1446.443)">
    <circle id="楕円形_476" data-name="楕円形 476" cx="33" cy="33" r="33" transform="translate(904 1446.443)" fill="#fff"/>
    <g id="healthcare-covid19-coronavirus-hand-hearth" transform="translate(918.607 1461.017)">
      <path id="パス_124753" data-name="パス 124753" d="M32.056,11.171H30.427V9.543A.543.543,0,0,0,29.885,9H27.714a.543.543,0,0,0-.543.543v1.628H25.543a.543.543,0,0,0-.543.543v2.171a.543.543,0,0,0,.543.543h1.628v1.628a.543.543,0,0,0,.543.543h2.171a.543.543,0,0,0,.543-.543V14.427h1.628a.543.543,0,0,0,.543-.543V11.714A.543.543,0,0,0,32.056,11.171Zm-.543,2.171H29.885a.543.543,0,0,0-.543.543v1.628H28.256V13.885a.543.543,0,0,0-.543-.543H26.085V12.256h1.628a.543.543,0,0,0,.543-.543V10.085h1.085v1.628a.543.543,0,0,0,.543.543h1.628Z" transform="translate(-10.407 -3.11)" fill="#75aa7f"/>
      <path id="パス_124754" data-name="パス 124754" d="M47.507,16.3a2.486,2.486,0,0,0,.016-.288A2.182,2.182,0,0,0,45.8,13.887,2.209,2.209,0,0,0,43.247,15.5L40.859,22.37a.886.886,0,0,0-.1.049l-4.8,2.811a4.894,4.894,0,0,0-2.415,4.212v5.113A.543.543,0,0,0,33,35.1v4.342a.543.543,0,0,0,.543.543h7.6a.543.543,0,0,0,.543-.543V35.1a.543.543,0,0,0-.543-.543V33.36a1.649,1.649,0,0,1,.543-1.216l3.669-3.262a2.676,2.676,0,0,0,.825-1.33l2.355-8.809a2.147,2.147,0,0,0,.076-.564A2.181,2.181,0,0,0,47.507,16.3Zm-3.224-.478a1.147,1.147,0,0,1,1.292-.868,1.085,1.085,0,0,1,.863,1.058v.011a2.225,2.225,0,0,0-2.111,1.661l-1.514,4.673a2.28,2.28,0,0,0-.727-.206ZM40.6,38.9H34.085V35.64H40.6Zm6.887-20.434-2.361,8.814a1.618,1.618,0,0,1-.488.792l-3.674,3.262a2.744,2.744,0,0,0-.906,2.03v1.194H34.628V29.442a3.827,3.827,0,0,1,1.878-3.278L41.3,23.358a1.085,1.085,0,0,1,1.487.4,1.118,1.118,0,0,1,.109.825,1.085,1.085,0,0,1-.51.657l-3.11,1.8a.543.543,0,0,0,.543.939l3.11-1.8a2.143,2.143,0,0,0,1.015-1.319,2.175,2.175,0,0,0-.217-1.645l-.033-.049,1.677-5.172a1.147,1.147,0,0,1,1.292-.868,1.085,1.085,0,0,1,.863,1.058A.935.935,0,0,1,47.486,18.462Z" transform="translate(-14.065 -5.327)" fill="#75aa7f"/>
      <path id="パス_124755" data-name="パス 124755" d="M17.306,34.556V29.443a4.894,4.894,0,0,0-2.415-4.212l-4.8-2.817c-.033-.016-.071-.027-.1-.043L7.619,15.538a2.229,2.229,0,0,0-2.567-1.65,2.182,2.182,0,0,0-1.726,2.122,2.485,2.485,0,0,0,.016.288,2.181,2.181,0,0,0-1.1,1.883,2.4,2.4,0,0,0,.071.564l2.361,8.8A2.668,2.668,0,0,0,5.5,28.884L9.16,32.146a1.635,1.635,0,0,1,.548,1.216v1.194a.543.543,0,0,0-.543.543v4.342a.543.543,0,0,0,.543.543h7.6a.543.543,0,0,0,.543-.543V35.1A.543.543,0,0,0,17.306,34.556ZM4.411,16.011a1.085,1.085,0,0,1,.858-1.058,1.173,1.173,0,0,1,1.313.906l2.182,6.29a2.28,2.28,0,0,0-.727.206l-1.5-4.646a2.252,2.252,0,0,0-2.122-1.688ZM9.882,31.332,6.213,28.07a1.609,1.609,0,0,1-.488-.8L3.358,18.464a1.151,1.151,0,0,1-.033-.282,1.085,1.085,0,0,1,.858-1.058,1.164,1.164,0,0,1,1.308.9l1.666,5.145-.033.049a2.175,2.175,0,0,0-.217,1.645,2.143,2.143,0,0,0,1.015,1.319l3.11,1.8a.543.543,0,0,0,.543-.939l-3.11-1.8a1.085,1.085,0,0,1-.51-.657,1.118,1.118,0,0,1,.109-.825,1.085,1.085,0,0,1,1.482-.4l4.8,2.811a3.827,3.827,0,0,1,1.878,3.278v5.113H10.794V33.362A2.73,2.73,0,0,0,9.882,31.332ZM16.764,38.9H10.251V35.642h6.513Z" transform="translate(0 -5.328)" fill="#75aa7f"/>
      <path id="パス_124756" data-name="パス 124756" d="M31.873,3.791a5.424,5.424,0,0,0-7.678,0h0a5.427,5.427,0,1,0-7.678,7.671l7.294,7.294a.543.543,0,0,0,.767,0l7.294-7.294a5.431,5.431,0,0,0,0-7.672ZM24.2,17.606l-6.911-6.911a4.342,4.342,0,0,1,3.074-7.41,4.3,4.3,0,0,1,3.068,1.274l.385.385a.543.543,0,0,0,.767,0l.386-.386a4.341,4.341,0,0,1,6.141,6.136Z" transform="translate(-5.803 0)" fill="#75aa7f"/>
    </g>
  </g>
</svg>
