<svg xmlns="http://www.w3.org/2000/svg" width="66" height="66" viewBox="0 0 66 66">
  <g id="icon_service_01_01" transform="translate(-108 -1151.944)">
    <circle id="楕円形_472" data-name="楕円形 472" cx="33" cy="33" r="33" transform="translate(108 1151.944)" fill="#fff"/>
    <g id="Human_Resource" data-name="Human Resource" transform="translate(119.297 1164.205)">
      <path id="パス_124706" data-name="パス 124706" d="M30.242,9.275a2.6,2.6,0,1,1,2.6-2.6,2.6,2.6,0,0,1-2.6,2.6Zm0-4.012a1.409,1.409,0,1,0,1.409,1.409,1.409,1.409,0,0,0-1.409-1.409Z" transform="translate(-8.538 0)" fill="#db9393"/>
      <path id="パス_124707" data-name="パス 124707" d="M40.474,11.663A2.258,2.258,0,1,1,42.733,9.4a2.258,2.258,0,0,1-2.258,2.258Zm0-3.323A1.065,1.065,0,1,0,41.539,9.4,1.065,1.065,0,0,0,40.474,8.34Z" transform="translate(-12.803 -1.241)" fill="#db9393"/>
      <path id="パス_124708" data-name="パス 124708" d="M20.474,11.663A2.258,2.258,0,1,1,22.733,9.4a2.258,2.258,0,0,1-2.258,2.258Zm0-3.323A1.065,1.065,0,1,0,21.539,9.4,1.065,1.065,0,0,0,20.474,8.34Z" transform="translate(-4.739 -1.241)" fill="#db9393"/>
      <path id="パス_124709" data-name="パス 124709" d="M33.525,15.116H29.867a1.425,1.425,0,0,0-.382.057,1.674,1.674,0,0,0-1.549-1.088H23.52a1.674,1.674,0,0,0-1.549,1.088,1.426,1.426,0,0,0-.382-.057H17.931a1.514,1.514,0,0,0-1.487,1.536v3.811c0,.527.386.815.777,1.228v5.058a1.031,1.031,0,0,0,1.018,1.041h3.043A1.03,1.03,0,0,0,22.3,26.749V21.691l.169-.178.319.336V28a1.121,1.121,0,0,0,1.105,1.133h3.673A1.121,1.121,0,0,0,28.669,28V21.849l.319-.336.169.178v5.058a1.03,1.03,0,0,0,1.018,1.041h3.043a1.031,1.031,0,0,0,1.018-1.041V21.691c.391-.413.777-.7.777-1.228V16.652A1.514,1.514,0,0,0,33.525,15.116Zm-12.42,6.507V26.6H18.414V21.623c0-.528-.387-.816-.777-1.228V16.652a.321.321,0,0,1,.293-.343h3.658a.294.294,0,0,1,.26.194v3.926C21.474,20.826,21.105,21.1,21.105,21.623Zm6.37.194v6.128h-3.5V21.817c0-.607-.489-.959-.938-1.433V15.816a.511.511,0,0,1,.478-.538h4.415a.511.511,0,0,1,.478.538v4.568C27.965,20.857,27.476,21.21,27.476,21.817Zm6.342-1.422c-.39.412-.777.7-.777,1.228V26.6H30.35V21.623c0-.525-.369-.8-.745-1.194V16.5a.294.294,0,0,1,.26-.194h3.658a.321.321,0,0,1,.293.343Z" transform="translate(-4.025 -4.038)" fill="#db9393"/>
      <path id="パス_124710" data-name="パス 124710" d="M47.7,24.733a.992.992,0,0,0-1.414-.7,4.084,4.084,0,0,0-2.145,5.071.774.774,0,0,1-.013.55l-.51,1.206a2.024,2.024,0,0,0-1.1.519l-2.143,1.993a.389.389,0,0,1-.247.1,4.99,4.99,0,0,0-4.5,3.371,2.347,2.347,0,0,0-.152.822l-.017,3.214h-.4a.6.6,0,0,0-.6.6v3.336a.6.6,0,0,0,.6.6h8.073a.6.6,0,0,0,.6-.6V41.483a.6.6,0,0,0-.6-.6H42.57a.756.756,0,0,1,.223-.471l4.352-4.188a2.76,2.76,0,0,0,.82-1.621A31.3,31.3,0,0,0,47.7,24.733Zm-5.16,19.489h-6.88V42.08h6.88Zm4.246-9.773a1.561,1.561,0,0,1-.465.916l-4.352,4.189a1.945,1.945,0,0,0-.6,1.331H36.647V37.547a3.836,3.836,0,0,1,3.53-2.876,1.585,1.585,0,0,0,1.006-.422l2.143-1.993a.847.847,0,0,1,.914-.152c.338.142.213.663-.03.933L41.537,36a.6.6,0,1,0,.886.8L45.1,33.837a1.76,1.76,0,0,0-.273-2.771l.4-.945a1.967,1.967,0,0,0,.043-1.4,2.872,2.872,0,0,1,1.308-3.49,30.117,30.117,0,0,1,.208,9.217Z" transform="translate(-11.29 -8.008)" fill="#db9393"/>
      <path id="パス_124711" data-name="パス 124711" d="M6.73,34.6a2.76,2.76,0,0,0,.82,1.621L11.9,40.414a.756.756,0,0,1,.223.471h-.563a.6.6,0,0,0-.6.6v3.336a.6.6,0,0,0,.6.6h8.073a.6.6,0,0,0,.6-.6V41.483a.6.6,0,0,0-.6-.6h-.4l-.017-3.214a2.347,2.347,0,0,0-.152-.822,4.99,4.99,0,0,0-4.5-3.371.389.389,0,0,1-.247-.1l-2.143-1.993a2.024,2.024,0,0,0-1.1-.519l-.51-1.206a.774.774,0,0,1-.013-.55,4.084,4.084,0,0,0-2.145-5.071.992.992,0,0,0-1.414.7A31.3,31.3,0,0,0,6.73,34.6Zm5.43,7.475h6.88v2.143H12.16ZM8.122,25.232a2.872,2.872,0,0,1,1.308,3.49,1.967,1.967,0,0,0,.043,1.4l.4.945A1.76,1.76,0,0,0,9.6,33.837L12.273,36.8a.6.6,0,1,0,.886-.8l-2.674-2.961c-.244-.27-.368-.791-.03-.933a.847.847,0,0,1,.914.152c2.258,2.1,2.4,2.382,3.15,2.415a3.837,3.837,0,0,1,3.53,2.876v3.339H13.33a1.945,1.945,0,0,0-.6-1.331L8.378,35.366a1.561,1.561,0,0,1-.465-.916,30.118,30.118,0,0,1,.208-9.217Z" transform="translate(0 -8.008)" fill="#db9393"/>
    </g>
  </g>
</svg>
