<svg xmlns="http://www.w3.org/2000/svg" width="66" height="66" viewBox="0 0 66 66">
  <g id="icon_service_03_03" transform="translate(-904 -1321.668)">
    <circle id="楕円形_478" data-name="楕円形 478" cx="33" cy="33" r="33" transform="translate(904 1321.668)" fill="#fff"/>
    <g id="グループ_52206" data-name="グループ 52206" transform="translate(0 83.124)">
      <g id="グループ_52188" data-name="グループ 52188" transform="translate(917.628 1255.052)">
        <g id="グループ_52181" data-name="グループ 52181">
          <g id="グループ_52179" data-name="グループ 52179" transform="translate(3.366)">
            <path id="パス_124780" data-name="パス 124780" d="M11.654,14.839a2.92,2.92,0,1,1,2.954-2.885,2.875,2.875,0,0,1-2.954,2.885Zm0-4.534a1.58,1.58,0,1,0,1.58,1.58A1.555,1.555,0,0,0,11.654,10.305Z" transform="translate(-8.7 -9)" fill="#88a2c4"/>
          </g>
          <g id="グループ_52180" data-name="グループ 52180" transform="translate(0 5.609)">
            <path id="パス_124781" data-name="パス 124781" d="M15.753,23.853a.688.688,0,0,1-.687-.687,4.974,4.974,0,0,0-2.954-4.534,2.922,2.922,0,0,1-1.992.824,2.643,2.643,0,0,1-1.992-.824,4.9,4.9,0,0,0-2.954,4.534.687.687,0,1,1-1.374,0,6.362,6.362,0,0,1,4.259-5.977.726.726,0,0,1,.824.343,1.46,1.46,0,0,0,1.237.618,1.313,1.313,0,0,0,1.237-.618.636.636,0,0,1,.824-.275,6.3,6.3,0,0,1,4.259,5.977A.678.678,0,0,1,15.753,23.853Z" transform="translate(-3.8 -17.165)" fill="#88a2c4"/>
          </g>
        </g>
        <g id="グループ_52184" data-name="グループ 52184" transform="translate(13.052)">
          <g id="グループ_52182" data-name="グループ 52182" transform="translate(3.366)">
            <path id="パス_124782" data-name="パス 124782" d="M30.654,14.839A2.932,2.932,0,0,1,27.7,11.885,2.875,2.875,0,0,1,30.654,9a2.932,2.932,0,0,1,2.954,2.954A2.875,2.875,0,0,1,30.654,14.839Zm0-4.534a1.58,1.58,0,1,0,1.58,1.58A1.555,1.555,0,0,0,30.654,10.305Z" transform="translate(-27.7 -9)" fill="#88a2c4"/>
          </g>
          <g id="グループ_52183" data-name="グループ 52183" transform="translate(0 5.609)">
            <path id="パス_124783" data-name="パス 124783" d="M34.753,23.853a.688.688,0,0,1-.687-.687,4.974,4.974,0,0,0-2.954-4.534,2.922,2.922,0,0,1-1.992.824,2.643,2.643,0,0,1-1.992-.824,4.9,4.9,0,0,0-2.954,4.534.687.687,0,1,1-1.374,0,6.362,6.362,0,0,1,4.259-5.977.726.726,0,0,1,.824.343,1.46,1.46,0,0,0,1.237.618,1.313,1.313,0,0,0,1.237-.618.636.636,0,0,1,.824-.275,6.3,6.3,0,0,1,4.259,5.977A.678.678,0,0,1,34.753,23.853Z" transform="translate(-22.8 -17.165)" fill="#88a2c4"/>
          </g>
        </g>
        <g id="グループ_52187" data-name="グループ 52187" transform="translate(26.104)">
          <g id="グループ_52185" data-name="グループ 52185" transform="translate(3.366)">
            <path id="パス_124784" data-name="パス 124784" d="M49.654,14.839A2.932,2.932,0,0,1,46.7,11.885,2.875,2.875,0,0,1,49.654,9a2.92,2.92,0,1,1,0,5.839Zm0-4.534a1.58,1.58,0,1,0,1.58,1.58A1.555,1.555,0,0,0,49.654,10.305Z" transform="translate(-46.7 -9)" fill="#88a2c4"/>
          </g>
          <g id="グループ_52186" data-name="グループ 52186" transform="translate(0 5.609)">
            <path id="パス_124785" data-name="パス 124785" d="M53.753,23.853a.688.688,0,0,1-.687-.687,4.974,4.974,0,0,0-2.954-4.534,2.922,2.922,0,0,1-1.992.824,2.643,2.643,0,0,1-1.992-.824,4.9,4.9,0,0,0-2.954,4.534.688.688,0,0,1-.687.687.649.649,0,0,1-.687-.687,6.362,6.362,0,0,1,4.259-5.977.726.726,0,0,1,.824.343,1.46,1.46,0,0,0,1.237.618,1.313,1.313,0,0,0,1.237-.618.636.636,0,0,1,.824-.275,6.3,6.3,0,0,1,4.259,5.977A.73.73,0,0,1,53.753,23.853Z" transform="translate(-41.8 -17.165)" fill="#88a2c4"/>
          </g>
        </g>
      </g>
      <g id="グループ_52194" data-name="グループ 52194" transform="translate(915.018 1265.974)">
        <g id="グループ_52189" data-name="グループ 52189" transform="translate(1.649 0.069)">
          <path id="パス_124786" data-name="パス 124786" d="M42.381,43.273H3.087a.688.688,0,0,1-.687-.687v-16.9A.688.688,0,0,1,3.087,25a.649.649,0,0,1,.687.687V41.968H41.831V25.687A.688.688,0,0,1,42.518,25a.649.649,0,0,1,.687.687V42.655A.887.887,0,0,1,42.381,43.273Z" transform="translate(-2.4 -25)" fill="#88a2c4"/>
        </g>
        <g id="グループ_52190" data-name="グループ 52190">
          <path id="パス_124787" data-name="パス 124787" d="M43.278,26.274H.687a.687.687,0,0,1,0-1.374H43.278a.688.688,0,0,1,.687.687A.649.649,0,0,1,43.278,26.274Z" transform="translate(0 -24.9)" fill="#88a2c4"/>
        </g>
        <g id="グループ_52193" data-name="グループ 52193" transform="translate(5.908 16.968)">
          <g id="グループ_52191" data-name="グループ 52191">
            <path id="パス_124788" data-name="パス 124788" d="M9.287,53.31a.688.688,0,0,1-.687-.687V50.287a.688.688,0,0,1,.687-.687.649.649,0,0,1,.687.687v2.336A.688.688,0,0,1,9.287,53.31Z" transform="translate(-8.6 -49.6)" fill="#88a2c4"/>
          </g>
          <g id="グループ_52192" data-name="グループ 52192" transform="translate(30.776)">
            <path id="パス_124789" data-name="パス 124789" d="M54.087,53.31a.688.688,0,0,1-.687-.687V50.287a.688.688,0,0,1,.687-.687.649.649,0,0,1,.687.687v2.336A.688.688,0,0,1,54.087,53.31Z" transform="translate(-53.4 -49.6)" fill="#88a2c4"/>
          </g>
        </g>
      </g>
    </g>
  </g>
</svg>
