<svg xmlns="http://www.w3.org/2000/svg" width="66" height="66" viewBox="0 0 66 66">
  <g id="icon_service_03_02" transform="translate(-904 -1235.76)">
    <circle id="楕円形_477" data-name="楕円形 477" cx="33" cy="33" r="33" transform="translate(904 1235.76)" fill="#fff"/>
    <g id="package-delivery-food-restaurant" transform="translate(915.456 1245.622)">
      <path id="パス_129991" data-name="パス 129991" d="M38.469,26.222l1.205-6.632h.762a.651.651,0,0,0,.651-.651V16.332a.651.651,0,0,0-.651-.651H38.971L37.8,11.6a.651.651,0,0,0-.625-.476H31.967V3.954A1.96,1.96,0,0,0,30.013,2H13.075a1.96,1.96,0,0,0-1.954,1.954v7.166H5.909a.651.651,0,0,0-.625.476L4.117,15.681H2.651A.651.651,0,0,0,2,16.332v2.606a.651.651,0,0,0,.651.651h.762l1.205,6.632a.63.63,0,0,0,.436.5l-.938,3.3H2.651A.651.651,0,0,0,2,30.665V33.27a.651.651,0,0,0,.651.651h.762l1.205,6.632a.651.651,0,0,0,.638.534H37.831a.651.651,0,0,0,.638-.534l1.205-6.632h.762a.651.651,0,0,0,.651-.651V30.665a.651.651,0,0,0-.651-.651H38.971l-.938-3.3A.63.63,0,0,0,38.469,26.222Zm-4.547-13.8h2.769l.925,3.257H33.922Zm0,4.56h5.863v1.3H33.922Zm0,9.772h2.769l.925,3.257H33.922Zm-21.5-22.8a.651.651,0,0,1,.651-.651H30.013a.651.651,0,0,1,.651.651v7.166H28.059V7.212A1.96,1.96,0,0,0,26.1,5.257H16.984a1.96,1.96,0,0,0-1.954,1.954v3.909H12.423ZM26.756,7.212v3.909H16.332V7.212a.651.651,0,0,1,.651-.651H26.1A.651.651,0,0,1,26.756,7.212ZM9.166,39.785H5.8L4.736,33.922h4.43Zm0-7.166H3.3v-1.3H9.166Zm0-2.606H5.472L6.4,26.756H9.166Zm0-4.56H5.8L4.736,19.59h4.43Zm0-7.166H3.3v-1.3H9.166Zm0-2.606H5.472L6.4,12.423H9.166Zm23.453,24.1H10.469V31.6a12.349,12.349,0,0,0,22.15,0ZM21.544,37.179A11.075,11.075,0,1,1,32.619,26.1,11.075,11.075,0,0,1,21.544,37.179ZM32.619,20.612a12.349,12.349,0,0,0-22.15,0V12.423h22.15ZM37.29,39.785H33.922V33.922h4.43Zm2.5-8.469v1.3H33.922v-1.3Zm-2.5-5.863H33.922V19.59h4.43Z" transform="translate(0 0)" fill="#8da1c1"/>
      <path id="パス_129992" data-name="パス 129992" d="M25.909,29v2.606h-.651V29h-1.3v2.606H23.3V29H22v5.212a2.606,2.606,0,0,0,1.212,2.2l-.56,6.215a.658.658,0,0,0,.651.71h2.606a.658.658,0,0,0,.651-.71L26,36.407a2.606,2.606,0,0,0,1.212-2.2V29Zm-1.9,13.029.476-5.225c.039,0,.078.013.117.013s.078-.013.117-.013l.476,5.225Zm1.9-7.818a1.3,1.3,0,1,1-2.606,0v-1.3h2.606Z" transform="translate(-6.971 -9.41)" fill="#8da1c1"/>
      <path id="パス_129993" data-name="パス 129993" d="M38.56,29A4.566,4.566,0,0,0,34,33.56v2.606a.651.651,0,0,0,.446.618l1.455.485-.593,5.342a.651.651,0,0,0,.648.721H38.56a.651.651,0,0,0,.651-.651V29.651A.651.651,0,0,0,38.56,29ZM36.682,42.029l.482-4.339.745.248v4.091Zm1.227-5.465L35.3,35.7V33.56a3.263,3.263,0,0,1,2.606-3.192v6.2Z" transform="translate(-11.153 -9.41)" fill="#8da1c1"/>
    </g>
  </g>
</svg>
