<svg xmlns="http://www.w3.org/2000/svg" width="66" height="66" viewBox="0 0 66 66">
  <g id="icon_service_03_01" transform="translate(-904 -1149.852)">
    <circle id="楕円形_441" data-name="楕円形 441" cx="33" cy="33" r="33" transform="translate(904 1149.852)" fill="#fff"/>
    <g id="グループ_52205" data-name="グループ 52205">
      <g id="_021---Canned-Fish" data-name="021---Canned-Fish" transform="translate(918 1166.052)">
        <path id="Shape" d="M18,0C7.907,0,0,3.953,0,9V24.6c0,5.047,7.907,9,18,9s18-3.953,18-9V9C36,3.953,28.093,0,18,0Zm0,32.4c-8.547,0-15.849-3.146-16.714-7.029C3.917,28.465,10.324,30.6,18,30.6s14.083-2.135,16.714-5.229C33.848,29.254,26.547,32.4,18,32.4ZM34.8,22.2c0,3.9-7.693,7.2-16.8,7.2S1.2,26.1,1.2,22.2V16.048C3.775,18.973,10.238,21,18,21s14.225-2.027,16.8-4.952Zm0-9c0,3.577-7.693,6.6-16.8,6.6S1.2,16.777,1.2,13.2v-.914C3.775,15.66,10.238,18,18,18s14.225-2.34,16.8-5.714ZM18,16.8C8.893,16.8,1.2,13.228,1.2,9S8.893,1.2,18,1.2,34.8,4.772,34.8,9,27.107,16.8,18,16.8Z" fill="#88a2c4"/>
        <path id="Shape-2" data-name="Shape" d="M17.243,16.286C9.891,15.768,5.2,12.789,5.2,10.968c0-1.292,2.706-3.73,8.515-4.86a.6.6,0,0,0-.229-1.178C7.989,6,4,8.538,4,10.968c0,2.7,5.287,5.957,13.157,6.515H17.2a.6.6,0,1,0,.042-1.2Z" transform="translate(-1.6 -1.968)" fill="#88a2c4"/>
        <path id="Shape-3" data-name="Shape" d="M37.3,4.935a.6.6,0,0,0-.229,1.177c5.809,1.13,8.515,3.568,8.515,4.86,0,1.821-4.691,4.8-12.043,5.318a.6.6,0,0,0,.042,1.2h.043c7.87-.56,13.157-3.821,13.157-6.518C46.785,8.541,42.8,6,37.3,4.935Z" transform="translate(-13.185 -1.971)" fill="#88a2c4"/>
        <path id="Shape-4" data-name="Shape" d="M31.284,10.862l-.567-3.97a3.367,3.367,0,0,0-6.666,0l-.567,3.97a2.4,2.4,0,0,0,2.375,2.74h3.049a2.4,2.4,0,0,0,2.375-2.74Zm-1.469,1.126a1.2,1.2,0,0,1-.907.413H25.859a1.2,1.2,0,0,1-1.188-1.37l.567-3.971a2.168,2.168,0,0,1,4.291,0l.567,3.97a1.2,1.2,0,0,1-.281.957Z" transform="translate(-9.384 -1.601)" fill="#88a2c4"/>
        <path id="Shape-5" data-name="Shape" d="M29.8,14H28.6a.6.6,0,1,0,0,1.2h1.2a.6.6,0,1,0,0-1.2Z" transform="translate(-11.2 -5.6)" fill="#88a2c4"/>
        <ellipse id="Oval" cx="1" cy="0.5" rx="1" ry="0.5" transform="translate(17 4.8)" fill="#88a2c4"/>
        <path id="Shape-6" data-name="Shape" d="M31.79,38.769a.6.6,0,1,0-.379-1.14,5.321,5.321,0,0,0-2.015,1.188C28.6,37.73,26.715,37,24.4,37c-3.079,0-5.4,1.289-5.4,3s2.321,3,5.4,3c2.315,0,4.2-.73,4.995-1.819a5.321,5.321,0,0,0,2.015,1.188.6.6,0,0,0,.379-1.14A3.9,3.9,0,0,1,29.925,40,3.9,3.9,0,0,1,31.79,38.769ZM24.4,41.8c-2.4,0-4.2-.95-4.2-1.8s1.8-1.8,4.2-1.8,4.2.95,4.2,1.8S26.8,41.8,24.4,41.8Z" transform="translate(-7.6 -14.8)" fill="#88a2c4"/>
        <ellipse id="Oval-2" data-name="Oval" cx="1" cy="0.5" rx="1" ry="0.5" transform="translate(5 19.8)" fill="#88a2c4"/>
        <circle id="Oval-3" data-name="Oval" cx="1" cy="1" r="1" transform="translate(5 21.8)" fill="#88a2c4"/>
        <ellipse id="Oval-4" data-name="Oval" cx="1" cy="0.5" rx="1" ry="0.5" transform="translate(5 24.8)" fill="#88a2c4"/>
        <circle id="Oval-5" data-name="Oval" cx="0.5" cy="0.5" r="0.5" transform="translate(30 19.8)" fill="#88a2c4"/>
        <ellipse id="Oval-6" data-name="Oval" cx="0.5" cy="1" rx="0.5" ry="1" transform="translate(30 21.8)" fill="#88a2c4"/>
        <circle id="Oval-7" data-name="Oval" cx="0.5" cy="0.5" r="0.5" transform="translate(30 24.8)" fill="#88a2c4"/>
      </g>
    </g>
  </g>
</svg>
